<svg xmlns="http://www.w3.org/2000/svg" xmlns:xlink="http://www.w3.org/1999/xlink" viewBox="0 0 157.08 129.72"><defs><style>.cls-1{fill:none;}.cls-2{clip-path:url(#clip-path);}.cls-3{fill:#252d20;}.cls-4{fill:#90917e;}</style><clipPath id="clip-path" transform="translate(0 0)"><rect class="cls-1" width="157.08" height="129.72"/></clipPath></defs><g id="Layer_2" data-name="Layer 2"><g id="Layer_1-2" data-name="Layer 1"><g id="Artwork_2" data-name="Artwork 2"><g class="cls-2"><g class="cls-2"><path class="cls-3" d="M83.47,129.66l24.76-.4,20.2-.1,11.72-45.81s-27.82-.86-29.94-1.27-14.49-1.8-13.9-11.54S108,59,111.8,59.06l32.52.66,12.76-47-27.65-.37-27,.06a107.1,107.1,0,0,0-12.3.64,54,54,0,0,0-12.38,3.82c-3,1.4-10.76,5.3-15.6,9.85s-9.06,11.4-11.8,16.57-5.94,15.22-7.19,20.77a110.47,110.47,0,0,0-2.49,20.39c0,5.85.44,15.84,2.88,21.18s4.53,9.47,7.94,13.2a51,51,0,0,0,7.31,6.9c2.94,2.1,8.45,4,10.12,4l14.59-.06" transform="translate(0 0)"/><path class="cls-4" d="M103,12.43,93.42,56.62l-39.05-1.1A55.91,55.91,0,0,0,52.7,68.36a15.85,15.85,0,0,0,2.18,8.52,13.24,13.24,0,0,0,9.7,6L88.34,83,80,129.66H50.66c-3.2,0-11.15-1.21-11.15-1.21-5-.77-8.64-2.68-13.34-5.48l-5-3.43c-3.26-2.05-6.54-5.48-9.84-9.59L7.24,103.8,5.57,100l-3-6.33L.93,87.53,0,78.67V72.83l.74-6.1,1.86-11L13.92,0,64.21.72S62.82,9,61.56,15c-1.62,7.66-2.74,11.51-1.43,12.22s3-2.13,8.78-5.88a54.93,54.93,0,0,1,11.88-5.82,56.85,56.85,0,0,1,11.84-2.63A88.08,88.08,0,0,1,103,12.43" transform="translate(0 0)"/></g></g></g></g></g></svg>